<?xml version="1.0" standalone="no"?>
<!DOCTYPE svg PUBLIC "-//W3C//DTD SVG 20010904//EN"
 "http://www.w3.org/TR/2001/REC-SVG-20010904/DTD/svg10.dtd">
<svg version="1.0" xmlns="http://www.w3.org/2000/svg"
 width="460.000000pt" height="460.000000pt" viewBox="0 0 460.000000 460.000000"
 preserveAspectRatio="xMidYMid meet">
<metadata>
Created by potrace 1.11, written by Peter Selinger 2001-2013
</metadata>
<g transform="translate(0.000000,460.000000) scale(0.100000,-0.100000)"
fill="#000000" stroke="none">
<path d="M780 4597 c0 -1 5 -18 11 -37 13 -45 18 -68 23 -107 3 -18 7 -40 10
-50 3 -10 15 -67 27 -128 11 -60 27 -141 36 -180 8 -38 14 -82 14 -97 0 -16 3
-28 7 -28 4 0 9 -14 10 -31 1 -17 7 -40 13 -51 9 -16 0 -30 -53 -91 -35 -40
-65 -74 -68 -77 -3 -3 -21 -25 -40 -50 -19 -25 -37 -47 -41 -50 -14 -11 -79
-126 -79 -140 0 -8 -12 -38 -27 -65 -14 -27 -34 -83 -45 -124 -10 -41 -25 -79
-34 -86 -10 -6 -17 -30 -19 -57 -3 -44 -22 -95 -31 -85 -3 2 -7 15 -9 28 -3
13 -12 29 -21 36 -9 6 -14 16 -11 20 3 5 2 15 -4 23 -6 10 -9 11 -9 3 0 -25
-33 -12 -72 28 -34 35 -44 40 -76 37 -38 -3 -47 -20 -15 -27 10 -1 26 -10 36
-19 9 -8 17 -12 17 -9 0 3 23 -17 50 -44 49 -49 51 -52 44 -94 -5 -37 -3 -45
14 -54 17 -9 22 -8 27 9 5 16 10 18 25 10 10 -6 28 -10 39 -10 17 0 21 6 21
36 0 26 8 43 30 66 28 27 34 40 31 61 0 4 4 7 9 7 15 0 12 -41 -5 -70 -19 -33
-20 -63 -2 -38 12 15 14 15 24 0 11 -15 12 -15 12 4 2 44 25 73 64 79 20 4 35
11 32 16 -4 5 0 6 8 3 9 -3 12 -14 9 -30 -3 -18 0 -24 13 -24 11 0 15 5 12 14
-3 8 1 20 8 26 8 7 13 16 10 20 -3 5 8 7 25 5 16 -2 32 0 35 4 3 5 22 4 42 -1
21 -6 55 -12 76 -15 20 -3 37 -9 37 -14 0 -5 5 -9 10 -9 12 0 73 -41 78 -52 2
-5 9 -8 15 -8 7 0 24 -19 39 -43 15 -23 38 -53 53 -65 17 -15 25 -32 24 -54 0
-33 0 -33 -16 -10 -8 12 -22 22 -29 22 -8 0 -14 7 -14 16 0 8 -4 13 -9 10 -4
-3 -16 3 -25 13 -10 11 -28 22 -42 25 -13 4 -24 13 -24 20 0 9 -7 12 -19 9
-13 -3 -29 4 -46 21 -18 18 -33 25 -45 21 -11 -3 -28 -1 -40 5 -13 7 -20 7
-20 0 0 -5 -15 -10 -33 -10 -18 0 -43 -7 -55 -16 -12 -8 -22 -13 -22 -10 0 3
-12 -6 -26 -19 -14 -13 -23 -29 -19 -35 4 -6 -1 -20 -11 -31 -16 -18 -16 -19
7 -20 13 -1 28 -1 33 0 4 1 14 -3 21 -9 10 -9 21 -7 42 7 15 9 30 21 33 25 11
15 80 38 112 38 34 -1 81 -20 130 -54 28 -18 70 -78 67 -93 -2 -4 4 -21 11
-36 12 -24 12 -30 -1 -38 -11 -7 -9 -9 8 -9 16 0 21 -4 17 -15 -4 -9 0 -15 9
-15 8 0 18 -6 20 -12 4 -10 8 -10 15 0 8 11 10 11 15 -1 3 -9 16 -17 29 -19
15 -2 24 -11 26 -25 4 -27 14 -29 32 -8 11 13 14 13 26 -2 31 -40 40 47 13
131 -5 15 -6 33 -2 40 9 14 4 58 -8 70 -5 6 -9 21 -9 35 0 19 -3 22 -9 12 -13
-20 -30 -4 -25 23 3 19 -1 25 -21 30 -14 4 -25 13 -25 20 0 8 -7 16 -15 20 -8
3 -15 11 -15 18 0 7 -30 44 -67 81 -88 88 -98 97 -108 97 -4 0 -28 19 -52 41
-43 39 -48 41 -94 37 -39 -4 -47 -2 -38 8 24 29 98 53 173 56 64 3 73 5 59 16
-9 6 -22 12 -28 12 -17 0 -65 24 -65 33 0 4 7 7 15 7 8 0 15 5 15 11 0 6 16
10 38 9 64 -3 92 0 92 9 0 6 -20 13 -45 17 -25 3 -49 12 -53 19 -4 6 -14 15
-22 18 -12 4 -11 6 3 6 12 1 17 9 17 32 0 23 4 30 15 26 17 -7 30 9 15 18 -18
11 -11 22 21 35 22 10 33 10 42 1 18 -18 30 -13 23 13 -4 17 2 29 24 50 16 14
39 26 50 26 11 0 20 5 20 10 0 6 -4 10 -10 10 -5 0 -10 5 -10 11 0 7 12 9 30
7 35 -5 51 10 26 24 -9 5 -16 14 -16 21 0 8 3 7 9 -2 13 -21 37 -7 49 29 11
30 10 31 -11 24 -19 -6 -20 -5 -8 9 16 20 8 47 -14 47 -8 0 -15 5 -15 10 0 6
-12 10 -26 10 -14 0 -35 5 -46 11 -24 13 -78 19 -78 8 0 -3 -11 -4 -26 -1 -28
5 -88 -19 -150 -60 -50 -33 -80 -31 -77 6 1 14 -3 26 -9 26 -6 0 -8 10 -4 25
4 14 2 25 -4 25 -5 0 -10 24 -10 54 0 30 -5 58 -10 61 -6 4 -8 15 -5 25 3 10
-2 25 -11 34 -12 12 -15 27 -11 52 4 20 2 34 -5 34 -5 0 -7 8 -4 17 4 9 1 20
-5 24 -6 4 -12 25 -13 47 0 24 -4 36 -9 29 -4 -7 -5 1 -1 16 7 30 -13 107 -28
107 -5 0 -5 8 0 18 5 9 8 24 7 32 -1 8 -3 25 -3 38 -2 16 -8 22 -27 22 -14 0
-25 -1 -25 -3z m416 -924 c-10 -10 -19 5 -10 18 6 11 8 11 12 0 2 -7 1 -15 -2
-18z m-614 -505 c-7 -7 -12 -8 -12 -2 0 14 12 26 19 19 2 -3 -1 -11 -7 -17z
m-15 -40 c-3 -8 -6 -5 -6 6 -1 11 2 17 5 13 3 -3 4 -12 1 -19z"/>
<path d="M840 4594 c0 -3 7 -35 15 -72 37 -171 56 -288 50 -311 -3 -16 -2 -21
3 -13 5 8 19 -41 36 -129 15 -78 25 -143 22 -146 -3 -3 1 -11 7 -18 10 -11 33
-7 54 10 2 1 -22 129 -53 286 -30 156 -60 310 -66 342 -10 54 -12 57 -39 57
-16 0 -29 -2 -29 -6z"/>
<path d="M2025 3690 c3 -5 13 -10 21 -10 8 0 12 5 9 10 -3 6 -13 10 -21 10 -8
0 -12 -4 -9 -10z"/>
<path d="M2077 3654 c-2 -13 0 -24 4 -24 5 0 9 5 9 10 0 6 7 10 15 10 18 0 18
-5 4 -31 -5 -11 -14 -17 -20 -14 -17 11 -7 -24 19 -65 2 -2 7 2 12 10 7 11 10
12 10 2 0 -7 -7 -20 -15 -29 -20 -19 -9 -36 20 -31 27 6 53 -28 36 -45 -16
-16 -13 -64 4 -71 8 -3 15 -13 15 -22 0 -10 8 -26 17 -37 16 -17 16 -20 2 -30
-21 -16 -30 -45 -16 -50 9 -3 9 -9 0 -25 -10 -17 -10 -23 1 -29 8 -4 14 -17
13 -28 -2 -23 -29 -54 -41 -47 -5 3 -7 -2 -3 -10 3 -9 -1 -28 -9 -44 -14 -26
-22 -54 -23 -82 -1 -10 -10 -12 -33 -7 -28 5 -31 4 -18 -7 21 -19 58 -90 80
-152 l17 -52 -23 -11 c-14 -6 -24 -7 -24 -2 0 6 -7 6 -17 1 -25 -13 -123 -21
-123 -11 0 5 -7 9 -16 9 -8 0 -12 -4 -9 -10 4 -7 -2 -7 -18 -1 -14 6 -27 7
-30 5 -13 -13 -43 -10 -48 5 -5 12 -8 9 -14 -11 -8 -30 -12 -33 -34 -19 -9 6
-20 4 -30 -6 -11 -11 -16 -12 -19 -4 -2 7 -13 -2 -24 -19 -13 -23 -24 -31 -38
-27 -10 3 -21 -1 -24 -9 -3 -8 -12 -11 -21 -8 -19 8 -65 -32 -65 -57 0 -9 -7
-22 -15 -29 -8 -7 -15 -19 -15 -26 0 -8 -5 -14 -11 -14 -7 0 -9 -11 -5 -31 4
-20 0 -41 -12 -62 -9 -18 -18 -43 -19 -57 -9 -87 -3 -240 8 -240 13 0 17 -42
6 -63 -14 -27 -72 -100 -106 -133 -28 -28 -74 -31 -118 -10 -15 8 -41 20 -56
27 -29 14 -77 83 -77 112 0 18 -52 37 -57 21 -2 -5 -24 -8 -50 -8 -38 1 -50 6
-59 22 -10 20 -11 19 -23 -14 -18 -49 -6 -101 31 -136 16 -15 34 -25 39 -22 6
3 16 1 23 -5 12 -10 45 -19 79 -20 10 -1 17 -9 17 -20 0 -10 6 -21 14 -24 18
-7 26 -63 11 -79 -22 -25 -35 -66 -22 -71 9 -3 9 -7 -1 -19 -9 -12 -10 -23 -2
-43 6 -15 8 -31 4 -36 -3 -5 -1 -9 5 -9 6 0 15 8 20 19 6 10 23 22 38 26 21 5
24 8 13 15 -9 6 -18 4 -23 -3 -6 -8 -7 -6 -3 6 3 10 6 25 6 32 0 12 57 45 79
45 14 0 14 -27 1 -35 -6 -4 -18 -1 -26 6 -8 6 -17 9 -21 5 -3 -3 -1 -6 5 -6 7
0 12 -7 12 -15 0 -11 7 -14 24 -9 18 4 25 1 28 -14 3 -11 2 -26 -3 -33 -5 -8
-9 -28 -9 -45 0 -17 -6 -36 -13 -42 -18 -16 -126 -6 -146 12 -54 49 -187 76
-418 84 -36 2 -43 5 -43 22 0 23 15 27 23 6 5 -13 10 -13 37 1 18 9 29 21 26
28 -3 8 2 19 10 25 9 8 14 9 14 2 0 -6 -5 -12 -10 -14 -6 -2 -1 -9 10 -16 17
-10 20 -10 21 5 0 14 3 12 10 -5 11 -29 29 -20 27 13 -2 20 -6 23 -25 19 -14
-4 -23 -2 -23 6 0 16 -26 40 -35 32 -4 -4 -6 -1 -3 7 6 21 28 26 28 7 0 -19 1
-19 34 -6 19 7 26 6 26 -2 0 -6 2 -9 5 -6 3 3 3 12 -1 21 -4 13 -10 14 -24 7
-13 -7 -21 -7 -25 0 -9 14 -42 12 -48 -2 -3 -9 -14 -4 -31 15 -28 29 -41 33
-51 17 -3 -5 -12 -7 -20 -3 -8 3 -15 1 -15 -5 0 -6 6 -13 13 -15 6 -3 2 -6
-10 -6 -12 -1 -24 5 -26 12 -3 6 -6 2 -6 -10 -1 -13 -5 -23 -10 -23 -6 0 -18
-14 -28 -30 -16 -27 -19 -29 -30 -14 -6 9 -9 22 -6 30 3 8 -1 14 -10 14 -14 0
-30 -27 -24 -41 1 -3 -3 -12 -9 -20 -6 -8 -17 -34 -24 -59 -7 -25 -20 -52 -27
-61 -8 -10 -11 -27 -7 -46 5 -24 1 -36 -17 -54 -14 -14 -24 -18 -27 -11 -5 17
-22 15 -22 -3 0 -13 -3 -14 -15 -3 -12 11 -11 15 6 30 25 21 23 64 -4 60 -11
-2 -17 4 -17 18 0 11 -5 20 -11 20 -8 0 -10 14 -6 40 4 33 2 40 -12 40 -9 0
-23 -6 -30 -12 -10 -11 -12 -7 -9 17 1 17 9 35 16 40 9 7 3 10 -20 9 -31 -1
-33 -3 -30 -34 3 -28 1 -31 -17 -25 -16 5 -23 1 -31 -19 -5 -14 -7 -32 -4 -40
4 -11 0 -13 -15 -9 -17 4 -19 1 -14 -19 4 -12 9 -25 12 -28 4 -3 1 -21 -5 -40
l-12 -35 -10 26 c-6 15 -13 58 -16 95 -5 60 -10 100 -15 113 0 2 -8 -3 -17
-10 -9 -8 -40 -16 -68 -19 l-51 -5 -3 -107 -3 -106 35 8 c57 13 65 -4 22 -44
-20 -20 -42 -36 -47 -36 -5 0 -9 -67 -9 -157 0 -156 1 -159 30 -211 26 -48 28
-58 21 -105 -5 -29 -9 -62 -9 -73 -1 -33 -21 -102 -32 -109 -15 -9 -12 -50 7
-90 14 -30 15 -42 5 -80 -7 -26 -9 -69 -5 -104 4 -39 2 -65 -5 -74 -7 -9 -11
-51 -10 -111 1 -94 2 -97 26 -103 52 -13 89 -82 60 -111 -21 -21 -34 -13 -58
33 -13 25 -25 45 -27 45 -1 0 -3 -34 -3 -75 l0 -75 240 0 c226 0 301 9 192 24
-56 7 -86 26 -107 66 -22 42 -20 49 30 124 24 38 42 72 40 76 -3 5 -21 14 -40
20 -19 6 -35 16 -35 20 0 13 29 1 67 -26 17 -13 36 -24 42 -24 14 0 15 -87 1
-95 -23 -14 10 -115 39 -115 10 0 42 -16 70 -35 46 -32 100 -48 86 -26 -8 13
15 26 45 24 14 -1 -4 5 -39 14 -72 17 -100 41 -102 88 -1 30 -1 30 -10 5 -6
-18 -8 -6 -6 42 3 62 1 68 -19 75 -38 13 -152 116 -157 142 -5 27 11 61 30 61
6 0 15 5 19 12 5 7 3 8 -6 3 -9 -5 -11 -4 -6 4 14 23 29 5 51 -62 21 -62 22
-68 6 -77 -13 -8 -12 -9 8 -10 21 0 23 3 17 35 -4 22 -3 35 4 35 5 0 10 -4 10
-8 0 -5 13 -7 29 -4 59 8 112 -52 89 -103 -14 -32 -3 -45 50 -60 33 -10 38
-15 47 -55 5 -25 13 -49 16 -55 14 -22 19 -68 10 -79 -24 -28 56 -37 314 -34
l249 3 22 85 c12 47 33 114 47 150 13 36 28 86 32 110 4 25 14 56 22 69 8 12
13 31 10 42 -3 10 1 23 9 30 11 9 16 6 24 -15 5 -14 15 -26 21 -26 7 0 9 -10
4 -27 -4 -16 -4 -26 -1 -23 13 14 56 82 56 90 0 5 12 22 26 39 19 23 34 31 60
31 25 0 38 6 50 25 19 29 34 32 34 8 0 -15 -2 -16 -10 -3 -7 11 -10 2 -10 -33
0 -30 4 -46 10 -42 6 3 10 1 10 -5 0 -6 5 -8 10 -5 6 4 4 12 -5 21 -13 14 -11
19 24 52 31 30 41 48 50 92 l10 55 -3 -62 c-5 -73 9 -94 17 -27 2 25 10 51 17
57 10 9 11 4 6 -23 -3 -19 -9 -52 -12 -72 -4 -21 2 -96 11 -168 18 -130 18
-131 32 -93 11 32 11 48 -2 109 -17 76 -15 161 4 208 9 21 9 32 0 42 -8 10 -8
14 0 14 6 0 11 7 11 16 0 9 6 14 13 11 6 -2 11 -10 9 -18 -2 -7 -6 -27 -8 -43
-4 -24 -3 -28 5 -16 6 8 11 25 11 37 0 12 8 27 18 32 11 7 13 13 6 18 -15 11
-40 60 -52 106 -11 38 -5 46 16 25 9 -9 12 -9 12 0 0 7 -11 17 -25 22 -14 5
-25 12 -25 14 0 3 6 3 14 0 17 -7 41 32 26 41 -5 3 -13 4 -17 2 -5 -3 -8 16
-7 41 0 26 -3 55 -8 65 -5 9 -5 17 0 17 12 0 52 -44 52 -58 0 -6 10 -18 22
-26 13 -9 28 -33 34 -54 l12 -37 1 32 c1 17 6 35 11 38 18 11 21 -20 5 -64 -8
-24 -15 -60 -15 -81 0 -20 -3 -40 -7 -44 -5 -4 -13 -26 -18 -49 -6 -23 -16
-41 -22 -40 -30 6 -26 -193 7 -297 22 -72 13 -245 -19 -335 -12 -32 -21 -61
-21 -62 0 -2 65 -3 144 -3 141 0 144 0 150 22 12 48 78 137 115 154 52 26 208
26 222 2 6 -10 17 -18 24 -18 20 0 19 -8 -10 -55 -31 -50 -34 -105 -5 -105 10
0 23 6 27 13 4 6 26 24 47 39 30 20 43 25 53 16 10 -8 13 0 13 40 0 28 5 63
10 77 10 26 13 27 57 20 26 -4 79 -15 117 -25 136 -34 133 -33 112 -17 -17 13
-13 13 35 6 30 -4 62 -10 72 -14 10 -4 17 -3 17 4 0 15 27 14 36 -1 5 -7 3 -8
-6 -3 -9 5 -11 4 -6 -4 4 -7 15 -11 24 -10 10 1 28 -1 42 -4 14 -3 42 -9 63
-12 25 -4 35 -10 31 -18 -4 -7 2 -4 13 6 11 9 22 14 25 11 7 -7 280 84 288 95
3 5 15 12 28 15 22 7 145 95 167 120 6 6 31 30 57 54 26 23 47 45 47 48 -2 7
103 126 146 167 65 61 184 94 249 68 18 -7 18 -8 -5 -24 -18 -14 -20 -17 -6
-17 19 0 21 -16 8 -72 -6 -25 -5 -36 1 -32 6 4 8 -2 6 -12 -2 -10 -19 -29 -38
-42 -19 -13 -36 -27 -38 -31 -2 -5 15 -16 36 -24 37 -15 42 -15 78 4 21 10 46
19 56 19 10 0 25 14 34 33 35 69 103 115 105 70 0 -10 15 -49 34 -88 l33 -70
1 91 c1 87 0 92 -21 98 -47 12 -105 5 -156 -19 -30 -14 -58 -25 -62 -25 -12 0
-23 101 -13 127 4 12 45 60 91 106 45 46 82 89 82 95 0 5 14 15 30 21 22 7 30
7 30 -2 0 -8 3 -8 11 0 9 9 5 34 -16 98 -15 47 -29 85 -31 82 -2 -2 -7 -21
-12 -43 -7 -33 -9 -23 -15 70 -4 60 -12 114 -17 121 -6 8 -8 63 -4 154 5 99 4
141 -4 141 -6 0 -14 -5 -17 -10 -4 -6 -32 -27 -63 -47 -42 -27 -71 -38 -109
-41 l-53 -4 0 -77 c0 -129 -62 -379 -131 -526 -42 -91 -121 -199 -211 -288
-49 -48 -93 -87 -99 -87 -6 0 -8 17 -5 40 5 38 4 40 -22 40 -18 0 -36 10 -54
32 l-27 33 -10 -25 c-5 -14 -10 -19 -10 -12 -1 7 -5 11 -10 7 -10 -6 -32 85
-35 146 -1 21 -6 42 -10 46 -5 4 -6 -38 -2 -93 6 -86 4 -102 -9 -107 -9 -4
-15 -1 -15 7 0 15 -30 18 -46 4 -8 -5 -18 -3 -28 7 -10 11 -24 14 -37 10 -20
-7 -21 -12 -16 -65 5 -46 3 -59 -8 -64 -8 -3 -15 -12 -15 -21 0 -8 -4 -15 -10
-15 -5 0 -10 -7 -10 -15 0 -32 -20 -13 -31 31 -8 30 -16 43 -25 40 -7 -3 -16
4 -20 17 -3 12 -15 31 -25 43 -10 11 -22 42 -25 70 -4 27 -12 52 -18 56 -13 9
-20 112 -12 183 1 11 9 31 16 45 8 14 13 28 12 32 -1 4 7 12 19 18 17 9 24 6
48 -19 16 -17 35 -31 43 -31 7 0 26 18 42 40 32 43 62 58 79 41 6 -6 18 -11
27 -11 26 0 41 -16 50 -51 4 -19 11 -43 16 -53 5 -12 4 -17 -3 -13 -6 4 -8 -3
-5 -18 2 -14 8 -25 13 -25 5 0 16 -15 25 -32 l17 -33 24 70 c13 39 34 113 48
165 14 52 30 97 35 98 6 2 10 11 10 20 0 12 -3 13 -11 5 -8 -8 -16 -6 -29 7
-14 14 -43 21 -112 27 -51 4 -103 7 -116 6 -12 -1 -20 3 -16 8 3 6 -62 8 -180
5 -142 -3 -193 -8 -218 -20 -50 -26 -66 -21 -78 23 -13 49 -43 63 -71 32 -24
-26 -24 -26 6 -65 14 -18 25 -38 25 -44 0 -7 4 -12 8 -12 5 0 21 -25 37 -55
15 -30 31 -53 35 -50 10 6 33 -22 64 -80 36 -68 33 -80 -5 -22 -35 52 -48 58
-24 9 9 -17 19 -55 22 -84 6 -49 5 -52 -10 -39 -18 14 -19 11 -21 -123 -1 -22
-5 -41 -11 -42 -24 -8 -170 168 -160 194 2 7 -7 18 -21 24 -18 8 -24 17 -20
31 6 24 -27 62 -46 51 -10 -6 -11 -5 -1 7 10 12 6 27 -18 74 -20 40 -33 84
-38 132 -8 69 -15 84 -107 265 -8 14 -14 41 -14 59 0 18 -3 29 -7 26 -12 -13
-42 127 -48 228 -4 55 -9 107 -12 115 -10 27 -11 55 -1 73 7 14 5 24 -7 37
-21 24 -14 59 22 106 20 27 22 34 10 34 -9 0 -19 -4 -22 -10 -21 -34 -53 22
-51 88 1 27 -1 30 -10 17 -10 -13 -13 -4 -19 45 -8 72 0 91 12 28 l9 -43 13
40 c8 22 18 45 23 52 6 7 8 38 7 70 -2 32 1 65 6 73 12 19 17 192 4 185 -5 -4
-9 -1 -9 4 0 22 -30 10 -65 -24 -19 -20 -36 -32 -37 -28 0 4 -4 -12 -8 -37
l-7 -45 -1 47 c-2 51 17 143 45 224 14 38 40 72 106 140 96 97 96 100 1 92
-51 -4 -49 2 20 41 68 40 79 39 30 0 l-39 -32 63 6 c34 3 73 12 85 21 68 49
72 50 36 10 -19 -21 -42 -48 -49 -58 -14 -18 -13 -18 10 -12 l25 8 -24 -18
-25 -18 27 -7 c33 -9 75 0 56 12 -8 5 0 8 21 7 19 -1 45 2 57 5 13 3 27 0 33
-9 8 -8 21 -12 36 -8 17 4 26 1 30 -10 3 -9 13 -16 21 -16 8 0 12 -4 8 -9 -7
-13 61 -34 88 -27 11 3 26 2 31 -3 16 -12 57 -21 51 -11 -3 4 14 6 37 4 l43
-4 -35 11 c-78 24 -75 29 13 24 49 -4 103 -12 120 -20 18 -8 45 -16 60 -20 17
-3 25 -10 21 -17 -5 -7 -3 -8 6 -3 8 5 17 2 24 -6 11 -14 227 -91 235 -83 10
10 -35 45 -53 40 -10 -3 -40 6 -67 19 -148 76 -275 112 -424 122 -55 3 -111
10 -125 14 -25 9 131 3 200 -7 l35 -5 -35 20 c-45 26 -34 26 30 1 28 -11 56
-18 61 -14 14 8 71 -12 189 -69 102 -48 150 -64 150 -47 0 4 -24 19 -52 33
-134 66 -389 137 -563 158 -44 5 -38 6 25 2 79 -5 108 -7 200 -18 19 -3 54 -7
77 -10 54 -6 64 10 27 41 -22 17 -25 23 -12 24 9 0 20 -4 23 -10 3 -5 10 -10
16 -10 15 0 10 19 -12 41 l-21 21 24 -6 c15 -5 9 2 -17 19 -47 31 -21 27 65
-11 l55 -24 -31 27 c-17 16 -44 38 -60 51 l-29 23 36 -20 c40 -23 53 -26 44
-11 -4 6 8 2 27 -10 40 -24 62 -26 54 -4 -4 11 -2 15 8 11 10 -4 13 -1 9 9 -6
17 19 10 59 -18 14 -10 29 -18 33 -18 4 0 21 -10 38 -22 29 -20 29 -18 -8 21
-24 25 -55 46 -80 53 -46 13 -88 38 -65 38 8 0 50 -18 93 -40 63 -31 75 -34
60 -17 -16 20 -16 20 0 8 9 -8 20 -11 24 -7 4 3 -3 13 -15 22 -12 8 -22 22
-22 30 0 8 -7 14 -16 14 -9 0 -12 -5 -8 -12 4 -7 3 -8 -5 -4 -6 4 -9 11 -6 15
4 7 -40 30 -87 45 -10 3 -18 10 -18 15 0 5 28 1 62 -10 34 -10 64 -17 66 -14
2 2 -17 17 -42 32 -26 16 -44 32 -41 35 3 3 -1 8 -10 12 -10 4 -14 2 -9 -6 7
-12 -21 -7 -71 12 -36 14 -31 20 7 9 53 -15 43 -2 -17 20 -59 22 -85 26 -85
13 0 -4 -75 -9 -167 -10 -93 -1 -181 -4 -198 -6 -16 -2 -45 -4 -62 -5 -36 -1
-46 -21 -11 -21 14 0 19 -3 12 -10 -5 -5 -48 -11 -94 -13 -69 -3 -79 -1 -57 8
15 6 24 14 21 18 -4 4 1 7 12 8 10 0 14 3 8 5 -27 11 -111 -41 -192 -119 -169
-162 -185 -177 -188 -177 -1 0 -5 30 -9 68 -9 94 -31 191 -48 210 -8 9 -17 25
-20 35 -4 9 -11 17 -17 17 -6 0 -8 5 -5 10 4 6 -10 26 -29 45 -20 19 -36 39
-36 44 0 16 -51 66 -64 64 -6 -2 -12 7 -13 19 -1 12 -9 26 -18 30 -8 5 -15 16
-15 24 0 11 -6 13 -20 9 -14 -5 -20 -2 -20 10 0 9 5 13 10 10 6 -3 10 3 10 14
0 12 -4 21 -10 21 -5 0 -10 -4 -10 -9 0 -5 -6 -11 -14 -14 -9 -4 -14 2 -15 16
-1 46 -4 58 -14 48 -5 -5 -21 -6 -37 -1 -25 7 -29 5 -33 -16z m73 -64 c0 -5
-2 -10 -4 -10 -3 0 -8 5 -11 10 -3 6 -1 10 4 10 6 0 11 -4 11 -10z m57 -132
c-3 -8 -6 -5 -6 6 -1 11 2 17 5 13 3 -3 4 -12 1 -19z m53 -18 c0 -5 -4 -10
-10 -10 -5 0 -10 5 -10 10 0 6 5 10 10 10 6 0 10 -4 10 -10z m1142 -167 c-6
-2 -10 -9 -7 -14 4 -5 -5 -8 -19 -7 -15 1 -26 4 -26 6 0 4 43 21 55 21 6 -1 4
-3 -3 -6z m-617 -43 c-3 -5 -11 -10 -16 -10 -6 0 -7 5 -4 10 3 6 11 10 16 10
6 0 7 -4 4 -10z m705 -30 c8 -5 11 -10 5 -10 -5 0 -17 5 -25 10 -8 5 -10 10
-5 10 6 0 17 -5 25 -10z m-669 -57 c-9 -4 -10 -8 -2 -12 6 -4 -12 -15 -40 -24
-28 -9 -48 -13 -45 -10 12 13 81 51 91 51 6 0 4 -2 -4 -5z m-88 -80 c-13 -2
-23 -8 -23 -12 0 -4 -19 -16 -42 -26 -24 -10 -58 -29 -75 -42 -56 -41 -36 -16
25 30 31 24 62 42 69 40 6 -2 14 1 18 6 3 6 16 10 28 10 22 -2 22 -2 0 -6z
m-217 -195 c5 -7 3 -8 -5 -4 -8 5 -11 3 -10 -5 4 -17 -21 -92 -28 -86 -2 3 2
21 11 40 8 19 12 38 9 41 -5 5 5 26 12 26 2 0 7 -5 11 -12z m-70 -207 c8 7 3
-10 -11 -38 -28 -53 -61 -72 -44 -24 24 64 34 82 37 66 3 -13 7 -14 18 -4z
m-280 -124 l27 -24 -36 -1 c-20 -1 -39 3 -42 9 -4 5 -15 7 -25 4 -10 -3 -24 1
-32 9 -8 8 -26 16 -39 19 -13 2 8 5 48 6 62 1 76 -2 99 -22z m-154 -31 c77
-34 102 -65 95 -116 -4 -28 -14 -49 -34 -66 l-28 -25 40 7 c31 5 37 4 29 -6
-36 -38 -214 -37 -214 1 0 5 -6 6 -12 4 -7 -3 -30 11 -51 30 -21 19 -32 35
-24 35 8 0 21 -7 28 -17 8 -9 29 -22 47 -30 28 -11 36 -11 60 1 43 22 57 44
56 89 -1 33 -8 47 -34 70 -28 25 -39 28 -72 24 -48 -6 -75 -29 -84 -71 -6 -27
-8 -28 -14 -11 -10 28 -2 45 33 78 39 35 104 37 179 3z m-247 -56 c3 -5 1 -10
-4 -10 -6 0 -11 5 -11 10 0 6 2 10 4 10 3 0 8 -4 11 -10z m180 1 c7 -12 -31
-25 -46 -15 -8 4 -7 9 2 15 18 11 36 11 44 0z m5 -204 c30 -9 66 -18 80 -19
21 -3 26 -10 34 -52 8 -42 6 -51 -9 -62 -17 -13 -17 -15 -1 -33 21 -24 12 -67
-16 -74 -11 -3 -22 -14 -25 -25 -4 -17 -9 -19 -36 -11 -38 11 -81 3 -98 -17
-10 -13 -10 -17 2 -26 11 -7 11 -11 2 -15 -7 -2 -13 -11 -13 -19 0 -8 -4 -14
-10 -14 -5 0 -10 9 -10 20 0 11 -2 20 -5 20 -15 0 -55 -34 -55 -46 0 -8 -7
-14 -15 -14 -9 0 -27 -12 -41 -27 -23 -25 -25 -25 -38 -8 -8 12 -18 15 -27 10
-11 -6 -12 -5 -1 6 17 18 15 40 -3 33 -10 -4 -14 -2 -10 7 2 8 6 39 8 69 3 41
7 54 18 52 10 -3 9 2 -4 16 -9 10 -15 21 -12 24 6 5 22 106 32 191 3 26 8 47
12 47 10 0 1 101 -9 115 -4 6 -4 21 1 34 9 22 13 19 102 -71 79 -80 100 -96
147 -111z m316 -369 c-10 -81 -25 -110 -26 -47 0 60 10 109 23 109 6 0 7 -23
3 -62z m71 20 c-3 -7 -5 -2 -5 12 0 14 2 19 5 13 2 -7 2 -19 0 -25z m-497 -18
c0 -11 -4 -20 -10 -20 -5 0 -10 9 -10 20 0 11 5 20 10 20 6 0 10 -9 10 -20z
m480 -127 c-10 -16 -11 -14 -6 7 3 14 7 41 8 60 1 32 2 32 5 -7 2 -24 -1 -51
-7 -60z m95 67 c-8 -16 -15 -44 -15 -62 -1 -28 -2 -30 -11 -15 -13 23 -2 78
20 94 23 18 23 16 6 -17z m-58 -2 c-3 -8 -6 -5 -6 6 -1 11 2 17 5 13 3 -3 4
-12 1 -19z m-141 -144 c3 -65 10 -123 15 -129 12 -13 12 -68 -1 -60 -5 3 -10
19 -10 34 0 15 -4 31 -9 36 -10 12 -22 97 -13 91 4 -2 5 33 4 77 -2 45 -1 79
2 76 3 -3 8 -59 12 -125z m159 -4 c3 -52 7 -107 8 -121 1 -14 8 -26 14 -26 8
0 11 9 8 21 -10 42 -12 92 -5 110 13 37 21 -2 23 -108 1 -58 5 -102 9 -100 4
3 8 -12 9 -33 0 -21 5 -47 10 -58 7 -16 8 -13 4 13 -3 20 -1 31 5 27 6 -3 10
-28 10 -56 0 -85 107 -450 185 -633 6 -14 5 -17 -3 -12 -14 8 -16 -6 -3 -19 5
-6 18 -37 30 -70 l21 -60 -21 25 c-28 33 -58 94 -108 220 -63 158 -76 195
-111 310 -17 58 -36 119 -42 135 -5 17 -12 42 -14 56 -2 14 -19 104 -39 200
-19 96 -36 179 -36 184 -1 6 -5 -6 -9 -25 l-7 -35 -2 37 c-1 42 7 68 21 68 6
0 8 -6 5 -13 -3 -7 1 -35 9 -63 13 -48 13 -46 8 51 -7 128 11 107 21 -25z
m-655 100 c0 -5 -4 -10 -10 -10 -5 0 -10 5 -10 10 0 6 5 10 10 10 6 0 10 -4
10 -10z m574 -138 c6 -37 6 -37 -10 -12 -11 18 -13 19 -9 5 4 -11 9 -38 12
-60 5 -37 4 -39 -12 -24 -14 14 -16 29 -9 125 7 101 9 105 15 56 4 -29 10 -69
13 -90z m-113 77 c-6 -16 -10 -18 -10 -7 -1 22 12 55 16 42 2 -6 -1 -22 -6
-35z m229 -9 c0 -5 -4 -10 -10 -10 -5 0 -10 5 -10 10 0 6 5 10 10 10 6 0 10
-4 10 -10z m-645 -40 c3 -10 3 -35 -1 -55 -6 -33 -8 -34 -19 -18 -13 19 -18
43 -16 76 1 23 28 22 36 -3z m389 5 c-9 -23 27 -168 45 -182 13 -10 7 -12 -37
-13 -33 0 -51 4 -47 10 4 6 -15 10 -49 10 -31 0 -56 3 -56 8 0 16 48 81 95
129 58 59 56 58 49 38z m-2038 -119 c-13 -21 -80 -45 -92 -33 -7 7 40 54 71
70 26 13 30 14 33 1 2 -8 -3 -25 -12 -38z m1660 -1 c11 -26 -6 -125 -21 -125
-26 0 -33 55 -14 109 12 33 26 40 35 16z m544 -46 c0 -17 -5 -29 -11 -27 -6 2
-10 7 -10 11 1 4 1 16 1 27 0 11 5 20 10 20 6 0 10 -14 10 -31z m-1675 0 c-5
-14 -3 -19 3 -15 6 3 13 2 16 -3 4 -5 -2 -12 -13 -16 -12 -4 -21 -19 -25 -46
-4 -23 -11 -37 -16 -34 -6 4 -8 10 -6 14 3 4 1 13 -4 21 -5 9 -2 22 11 38 22
29 24 39 7 45 -7 2 -5 3 5 2 9 -2 17 1 17 6 0 5 3 9 6 9 3 0 2 -10 -1 -21z
m1632 -11 c-3 -7 -5 -2 -5 12 0 14 2 19 5 13 2 -7 2 -19 0 -25z m-1677 -8 c0
-5 -7 -10 -16 -10 -8 0 -12 5 -9 10 3 6 10 10 16 10 5 0 9 -4 9 -10z m3871
-39 c13 21 11 -105 -3 -138 l-11 -28 -6 35 c-6 32 -6 87 -1 135 2 19 3 19 7 1
4 -15 7 -16 14 -5z m-3391 -1 c0 -5 -5 -10 -11 -10 -5 0 -7 5 -4 10 3 6 8 10
11 10 2 0 4 -4 4 -10z m-370 -47 c0 -15 -2 -15 -24 -7 -16 6 -22 35 -9 48 9 8
33 -22 33 -41z m480 27 c10 -5 36 -11 56 -12 42 -3 104 -54 104 -85 0 -15 1
-15 13 0 12 17 14 17 46 1 32 -16 70 -78 71 -116 0 -9 9 -37 20 -63 l20 -47
-30 7 -30 7 5 -41 c4 -33 1 -43 -17 -56 -36 -24 -68 -18 -127 27 -69 53 -102
88 -143 155 -17 29 -36 49 -42 46 -6 -3 -3 3 7 13 15 16 19 17 27 4 6 -9 10
-10 10 -3 0 15 -12 23 -44 25 -22 2 -26 7 -26 33 0 18 -10 41 -24 56 l-24 26
23 13 c13 7 28 9 34 6 6 -4 11 -2 11 3 0 14 35 14 60 1z m-130 -4 c0 -3 -4 -8
-10 -11 -5 -3 -10 -1 -10 4 0 6 5 11 10 11 6 0 10 -2 10 -4z m-503 -28 c-3 -8
-6 -5 -6 6 -1 11 2 17 5 13 3 -3 4 -12 1 -19z m1792 -44 c3 -17 2 -17 -15 -4
-11 9 -15 10 -10 3 4 -8 1 -13 -8 -13 -10 0 -16 9 -16 25 0 21 3 23 23 16 12
-5 24 -17 26 -27z m-1712 4 c-3 -8 -6 -5 -6 6 -1 11 2 17 5 13 3 -3 4 -12 1
-19z m108 -8 c7 0 16 6 18 13 4 7 6 8 6 1 1 -18 -25 -35 -43 -28 -9 3 -16 16
-16 28 1 19 2 19 11 4 5 -10 16 -18 24 -18z m-588 -2 c-3 -8 -6 -5 -6 6 -1 11
2 17 5 13 3 -3 4 -12 1 -19z m4190 -20 c-3 -8 -6 -5 -6 6 -1 11 2 17 5 13 3
-3 4 -12 1 -19z m93 2 c0 -5 -5 -10 -11 -10 -5 0 -7 5 -4 10 3 6 8 10 11 10 2
0 4 -4 4 -10z m-4272 -32 c-11 -6 -10 -10 1 -17 8 -5 12 -19 9 -35 -4 -18 -1
-26 8 -26 11 0 13 -14 12 -57 -3 -57 -4 -58 -33 -58 -25 0 -30 5 -38 35 -24
92 2 210 40 178 11 -9 12 -13 1 -20z m712 -43 c23 -19 46 -35 50 -35 9 0 8
-26 -1 -35 -3 -3 -23 6 -43 20 -20 14 -42 25 -49 25 -25 0 -39 17 -32 39 9 30
27 26 75 -14z m114 -10 c-4 -8 -10 -12 -15 -9 -14 8 -10 24 6 24 9 0 12 -6 9
-15z m3406 -70 c-6 -8 -8 -20 -4 -26 4 -8 3 -9 -4 -5 -16 10 -15 33 1 39 19 8
20 8 7 -8z m-2469 -97 c16 -29 2 -21 -22 15 -17 23 -18 28 -6 18 10 -8 23 -23
28 -33z m1559 33 c0 -12 -29 -18 -60 -12 l-25 5 25 7 c37 10 60 10 60 0z
m-122 -13 c-5 -15 -53 -23 -76 -12 -12 6 -6 9 23 14 22 4 44 8 48 9 5 0 7 -5
5 -11z m-1100 -23 c-3 -3 -9 2 -12 12 -6 14 -5 15 5 6 7 -7 10 -15 7 -18z
m-1548 -5 c0 -5 -4 -10 -10 -10 -5 0 -10 5 -10 10 0 6 5 10 10 10 6 0 10 -4
10 -10z m780 0 c0 -5 -5 -10 -11 -10 -5 0 -7 5 -4 10 3 6 8 10 11 10 2 0 4 -4
4 -10z m2970 -33 c0 -5 -4 -5 -10 -2 -5 3 -10 14 -10 23 0 15 2 15 10 2 5 -8
10 -19 10 -23z m-3645 -22 c6 -6 19 -15 30 -19 16 -6 17 -9 5 -17 -13 -8 -13
-10 0 -19 10 -6 11 -13 5 -19 -12 -12 -93 27 -109 52 -22 36 40 56 69 22z
m-170 -26 c10 -15 -1 -23 -20 -15 -9 3 -13 10 -10 16 8 13 22 13 30 -1z m3884
-37 c-1 -33 -2 -34 -9 -12 -12 36 -12 62 0 55 6 -3 10 -23 9 -43z m-3800 2 c8
-7 -30 -16 -44 -10 -27 10 -17 27 13 20 15 -4 29 -8 31 -10z m1077 -21 c-11
-11 -19 6 -11 24 8 17 8 17 12 0 3 -10 2 -21 -1 -24z m-1667 -118 c23 -52 199
-231 253 -257 18 -9 59 -24 91 -33 133 -38 290 -179 180 -161 -64 10 -68 12
-70 21 -3 13 -62 35 -94 35 -22 0 -29 5 -29 20 0 15 7 20 28 21 27 1 27 1 -5
11 -18 6 -35 18 -38 27 -2 9 -19 22 -35 30 -30 13 -32 12 -66 -25 -20 -22 -32
-32 -28 -24 7 13 6 13 -10 0 -11 -9 -14 -16 -7 -18 6 -2 -12 -31 -41 -65 -29
-33 -68 -81 -85 -106 -18 -25 -33 -39 -34 -31 0 10 -2 11 -6 3 -2 -7 -9 -13
-14 -13 -6 0 -7 5 -3 12 4 6 0 16 -8 22 -26 19 -50 149 -42 227 6 65 15 82 29
59 4 -6 11 -8 16 -5 5 4 17 -1 26 -11 16 -15 17 -15 23 2 6 15 7 15 13 2 3 -9
3 -26 0 -37 -4 -17 -2 -20 11 -15 9 3 16 1 16 -5 0 -6 5 -11 11 -11 6 0 9 7 5
15 -3 8 -1 14 3 12 12 -3 61 51 61 67 0 12 -27 30 -39 26 -2 -1 -9 9 -15 22
-8 16 -22 24 -44 26 -17 2 -32 7 -32 12 0 4 -10 10 -23 14 -33 8 -57 56 -57
113 0 27 3 53 7 56 16 17 34 4 52 -38z m1975 12 c3 3 6 1 6 -5 0 -7 -5 -12
-11 -12 -5 0 -8 -4 -5 -9 3 -5 14 -7 24 -4 20 5 47 -21 55 -54 8 -34 -8 -28
-63 25 -51 49 -67 82 -31 63 10 -6 21 -7 25 -4z m-421 -148 c-17 -17 -37 -1
-22 17 8 10 15 12 23 4 7 -7 7 -13 -1 -21z m641 5 c9 -8 16 -22 16 -30 0 -18
17 -18 27 1 8 14 30 20 67 17 13 -2 17 -8 13 -23 -3 -12 0 -22 8 -25 20 -8 26
-31 14 -61 -10 -26 -9 -27 9 -10 19 17 20 17 25 -4 7 -27 -21 -79 -43 -79 -9
0 -22 6 -29 13 -8 6 -12 8 -9 2 3 -5 -4 -18 -14 -28 -18 -17 -19 -16 -48 30
-17 26 -30 53 -30 60 0 7 -8 13 -17 13 -31 0 -63 41 -63 81 0 53 41 77 74 43z
m-644 -44 c0 -5 -4 -10 -10 -10 -5 0 -10 5 -10 10 0 6 5 10 10 10 6 0 10 -4
10 -10z m807 -11 c2 -17 -1 -18 -13 -8 -13 11 -10 20 11 29 1 0 1 -9 2 -21z
m-426 -11 c24 -30 24 -38 -1 -38 -19 0 -20 -4 -14 -36 7 -40 -4 -54 -45 -54
l-25 0 28 29 c20 20 27 37 23 50 -3 13 -1 19 5 15 7 -4 8 5 3 25 -8 37 0 39
26 9z m1189 -14 c0 -8 -4 -12 -10 -9 -5 3 -10 10 -10 16 0 5 5 9 10 9 6 0 10
-7 10 -16z m-1100 -4 c0 -5 -12 -10 -27 -10 -22 0 -25 2 -13 10 20 13 40 13
40 0z m-8 -92 c41 -58 59 -75 99 -93 21 -10 39 -22 39 -27 0 -4 8 -8 18 -8 10
0 33 -13 52 -29 l35 -29 -50 -7 c-27 -3 -62 -8 -76 -11 -21 -4 -40 6 -93 51
-70 59 -96 97 -96 139 0 22 21 45 42 46 4 0 17 -15 30 -32z m368 -28 c0 -5 -5
-10 -11 -10 -5 0 -7 5 -4 10 3 6 8 10 11 10 2 0 4 -4 4 -10z m80 -141 c-7 -11
-14 -18 -17 -15 -3 3 0 12 7 21 18 21 23 19 10 -6z m-132 -37 c2 -7 -3 -12
-12 -12 -9 0 -16 7 -16 16 0 17 22 14 28 -4z m-1720 -50 c4 -25 -1 -27 -28
-12 -12 6 -17 16 -13 26 8 22 37 13 41 -14z m-33 -60 c-3 -3 -11 0 -18 7 -9
10 -8 11 6 5 10 -3 15 -9 12 -12z m-458 -69 c8 -22 -36 -36 -68 -22 -31 12
-29 23 6 32 31 8 58 3 62 -10z"/>
<path d="M2392 1480 c0 -14 4 -36 8 -50 l8 -25 0 25 c0 14 -4 36 -8 50 l-8 25
0 -25z"/>
<path d="M2420 1366 c0 -14 4 -27 8 -30 5 -3 6 8 4 25 -5 35 -12 38 -12 5z"/>
<path d="M1128 1313 c7 -3 16 -2 19 1 4 3 -2 6 -13 5 -11 0 -14 -3 -6 -6z"/>
<path d="M307 536 c-6 -16 16 -40 26 -29 4 3 7 15 7 25 0 21 -25 24 -33 4z"/>
<path d="M290 499 c0 -5 5 -7 10 -4 6 3 10 8 10 11 0 2 -4 4 -10 4 -5 0 -10
-5 -10 -11z"/>
<path d="M265 459 c-4 -6 -5 -12 -2 -15 2 -3 7 2 10 11 7 17 1 20 -8 4z"/>
<path d="M2170 3656 c0 -9 5 -16 10 -16 6 0 10 4 10 9 0 6 -4 13 -10 16 -5 3
-10 -1 -10 -9z"/>
<path d="M212 3188 c-20 -26 -72 -149 -82 -195 -16 -75 -28 -254 -20 -282 l8
-26 1 28 c3 103 81 394 108 404 17 7 24 1 26 -25 1 -18 3 -19 25 -4 28 18 24
53 -10 90 -24 25 -41 28 -56 10z"/>
<path d="M3790 3171 c0 -10 24 -21 43 -21 7 0 3 7 -7 15 -22 17 -36 19 -36 6z"/>
<path d="M3879 3120 c18 -15 42 -31 53 -33 20 -6 20 -5 2 11 -25 23 -71 52
-81 52 -4 -1 7 -14 26 -30z"/>
<path d="M3762 3123 c-6 -2 -10 -9 -6 -14 8 -14 21 -11 21 6 0 8 -1 15 -1 14
-1 0 -7 -3 -14 -6z"/>
<path d="M3770 3064 c0 -9 33 -33 44 -34 6 0 0 9 -12 20 -22 21 -32 25 -32 14z"/>
<path d="M232 3038 c-29 -68 -31 -78 -21 -78 13 0 41 68 36 88 -3 13 -7 10
-15 -10z"/>
<path d="M3510 3056 c0 -2 8 -10 18 -17 15 -13 16 -12 3 4 -13 16 -21 21 -21
13z"/>
<path d="M3985 3040 c3 -5 20 -19 38 -32 28 -20 30 -20 17 -3 -18 25 -41 45
-53 45 -4 0 -6 -4 -2 -10z"/>
<path d="M3760 3031 c0 -5 5 -13 10 -16 6 -3 10 -2 10 4 0 5 -4 13 -10 16 -5
3 -10 2 -10 -4z"/>
<path d="M3460 3020 c8 -5 20 -10 25 -10 6 0 3 5 -5 10 -8 5 -19 10 -25 10 -5
0 -3 -5 5 -10z"/>
<path d="M3790 3003 c0 -15 15 -30 40 -43 24 -12 24 -11 -4 19 -31 32 -36 36
-36 24z"/>
<path d="M3451 2996 c2 -2 15 -9 29 -15 24 -11 24 -11 6 3 -16 13 -49 24 -35
12z"/>
<path d="M3525 2983 c12 -11 27 -23 35 -26 24 -9 -9 -8 -52 2 -21 5 -38 7 -38
5 0 -11 131 -64 141 -58 7 4 9 3 6 -3 -4 -6 7 -13 26 -17 40 -7 95 -46 90 -63
-5 -15 83 -67 97 -58 17 11 -22 47 -120 113 -102 70 -214 133 -185 105z"/>
<path d="M3997 2950 c10 -17 28 -38 40 -46 20 -13 23 -13 23 1 0 20 -49 75
-67 75 -11 0 -10 -6 4 -30z"/>
<path d="M3641 2945 c11 -11 130 -85 137 -85 4 0 21 -11 37 -25 22 -18 25 -23
10 -19 -12 3 0 -13 29 -40 27 -25 53 -43 58 -40 4 3 25 -7 45 -22 l38 -28 -40
43 c-22 23 -53 52 -70 64 l-30 21 20 -25 20 -24 -22 18 c-12 11 -19 25 -16 33
3 8 0 14 -5 14 -6 0 -26 15 -44 33 -18 18 -59 45 -91 60 -52 24 -88 35 -76 22z"/>
<path d="M933 2900 c-26 -24 -37 -69 -24 -101 5 -14 29 -36 55 -49 45 -25 46
-25 80 -6 44 23 58 54 45 100 -19 69 -108 101 -156 56z m102 -30 c3 -5 -1 -10
-10 -10 -9 0 -13 5 -10 10 3 6 8 10 10 10 2 0 7 -4 10 -10z m-35 -10 c0 -5 -2
-10 -4 -10 -3 0 -8 5 -11 10 -3 6 -1 10 4 10 6 0 11 -4 11 -10z"/>
<path d="M3909 2901 c15 -27 31 -36 31 -17 0 8 -9 20 -21 26 -19 11 -20 10
-10 -9z"/>
<path d="M315 2898 c-2 -7 -5 -32 -7 -55 -3 -38 -1 -43 18 -43 12 0 26 6 31
13 16 19 24 65 14 72 -5 3 -11 -3 -14 -12 -3 -14 -6 -11 -11 10 -9 28 -24 36
-31 15z"/>
<path d="M3470 2895 c14 -8 30 -14 35 -14 6 0 -1 6 -15 14 -14 8 -29 14 -35
14 -5 0 1 -6 15 -14z"/>
<path d="M4071 2888 c0 -7 14 -24 32 -38 l32 -25 -29 38 c-31 40 -36 44 -35
25z"/>
<path d="M2697 2819 c-21 -11 -41 -18 -46 -15 -13 9 -90 -63 -110 -103 -20
-39 -34 -121 -21 -121 12 0 110 83 154 131 22 23 33 38 25 34 -8 -5 6 14 29
43 49 58 39 68 -31 31z"/>
<path d="M3980 2831 c0 -5 7 -15 17 -22 15 -13 15 -12 4 9 -12 23 -21 28 -21
13z"/>
<path d="M2040 2796 c0 -9 5 -16 10 -16 6 0 10 4 10 9 0 6 -4 13 -10 16 -5 3
-10 -1 -10 -9z"/>
<path d="M4040 2802 c0 -8 14 -26 80 -100 11 -12 20 -25 20 -27 0 -2 11 -16
25 -30 50 -49 54 -21 7 42 -28 38 -132 128 -132 115z"/>
<path d="M4111 2807 c2 -1 13 -9 24 -17 19 -14 19 -14 6 3 -7 9 -18 17 -24 17
-6 0 -8 -1 -6 -3z"/>
<path d="M175 2780 c-8 -26 2 -90 15 -90 4 0 11 -13 15 -29 7 -33 39 -66 54
-56 16 9 13 37 -6 65 -9 13 -22 46 -28 74 -12 55 -38 73 -50 36z"/>
<path d="M868 2764 c12 -18 40 -41 62 -53 44 -23 110 -35 110 -20 0 5 -9 9
-20 9 -25 0 -92 33 -140 69 l-34 26 22 -31z"/>
<path d="M3840 2762 c0 -4 9 -15 20 -25 12 -10 18 -22 14 -28 -3 -6 3 -13 15
-16 12 -3 21 -9 21 -15 0 -16 43 -67 52 -62 5 3 6 15 3 27 -5 19 -4 19 9 -3 8
-14 12 -28 10 -32 -3 -4 3 -16 13 -26 27 -28 104 -114 127 -142 l21 -25 -26
23 c-27 23 -62 21 -53 -3 10 -24 -34 -5 -60 26 -14 16 -45 40 -70 53 -25 13
-57 34 -72 45 -15 12 -33 21 -40 21 -8 0 -14 4 -14 8 0 4 -15 16 -32 26 -59
33 105 -127 243 -239 14 -11 40 -42 58 -70 19 -27 31 -42 28 -32 -4 9 -2 17 3
17 6 0 10 -4 10 -10 0 -5 13 -24 29 -43 17 -18 38 -54 48 -79 19 -48 56 -98
72 -98 6 0 13 17 17 38 12 69 96 129 157 111 l30 -8 -7 54 c-7 59 -33 135 -46
135 -5 0 -2 -13 6 -29 8 -16 17 -54 20 -83 l5 -53 -17 38 c-9 20 -20 37 -25
37 -5 0 -9 5 -9 11 0 5 5 7 12 3 8 -5 9 -2 5 10 -4 10 -7 20 -7 22 0 3 -5 2
-11 -2 -6 -3 -10 1 -9 12 4 34 0 45 -12 38 -6 -4 -8 -3 -4 4 3 6 2 14 -4 17
-8 5 -7 12 2 23 10 12 10 14 1 8 -7 -4 -13 -3 -13 3 0 5 -9 12 -19 16 -13 4
-17 12 -14 25 3 11 9 20 14 20 5 0 6 7 3 15 -4 8 -12 15 -19 15 -14 0 -27 24
-30 53 -2 12 3 16 12 13 11 -4 11 -1 3 14 -6 11 -13 20 -16 20 -3 0 -3 -4 1
-9 12 -20 -17 -22 -31 -2 -15 20 -44 29 -44 13 0 -4 7 -18 16 -30 14 -20 14
-22 0 -22 -30 0 -17 -25 32 -59 17 -12 32 -26 32 -30 0 -4 -20 -7 -45 -7 -37
1 -42 3 -30 13 20 14 10 20 -35 21 -31 1 -33 -1 -18 -12 10 -7 15 -16 11 -19
-3 -4 -1 -7 6 -7 7 0 9 -4 6 -10 -3 -5 2 -10 12 -11 11 0 13 -3 5 -6 -21 -8
-62 6 -62 22 0 8 -8 15 -17 15 -15 0 -16 -2 -3 -10 11 -7 12 -10 2 -10 -16 0
-43 25 -36 33 3 3 13 3 22 0 11 -5 13 -3 7 8 -18 28 -89 99 -100 99 -6 0 -21
14 -34 30 -12 17 -26 28 -32 25 -5 -4 -12 1 -15 9 -7 17 -104 90 -104 78z
m335 -332 c3 -5 2 -10 -4 -10 -5 0 -13 5 -16 10 -3 6 -2 10 4 10 5 0 13 -4 16
-10z m85 -34 c0 -2 -7 -6 -15 -10 -8 -3 -15 -1 -15 4 0 6 7 10 15 10 8 0 15
-2 15 -4z m50 -62 c-8 -20 -8 -30 -1 -32 14 -5 15 -32 2 -32 -17 0 -21 17 -15
65 4 27 11 42 16 37 5 -5 4 -21 -2 -38z m-27 -47 c25 -27 37 -49 37 -68 0 -34
-4 -35 -31 -10 -14 13 -19 26 -15 39 5 14 -1 27 -21 44 -15 13 -39 37 -53 53
l-25 29 35 -24 c19 -13 52 -41 73 -63z m-48 -17 c10 -11 16 -20 13 -20 -3 0
-13 9 -23 20 -10 11 -16 20 -13 20 3 0 13 -9 23 -20z"/>
<path d="M4281 2234 c0 -11 3 -14 6 -6 3 7 2 16 -1 19 -3 4 -6 -2 -5 -13z"/>
<path d="M4239 2738 c4 -12 14 -24 20 -26 8 -3 7 5 -4 22 -21 32 -27 33 -16 4z"/>
<path d="M3458 2743 c7 -3 16 -2 19 1 4 3 -2 6 -13 5 -11 0 -14 -3 -6 -6z"/>
<path d="M3510 2745 c0 -2 19 -13 43 -24 39 -20 40 -20 17 -2 -22 18 -60 34
-60 26z"/>
<path d="M1155 2720 c-9 -15 4 -30 26 -30 23 0 24 6 5 26 -17 17 -23 17 -31 4z"/>
<path d="M1245 2690 c4 -6 11 -8 16 -5 14 9 11 15 -7 15 -8 0 -12 -5 -9 -10z"/>
<path d="M3649 2675 c30 -14 56 -23 58 -21 7 7 -74 46 -94 46 -10 0 6 -11 36
-25z"/>
<path d="M3740 2686 c0 -5 78 -56 86 -56 13 0 -20 32 -47 46 -28 14 -39 17
-39 10z"/>
<path d="M4220 2670 c0 -5 5 -10 11 -10 5 0 7 5 4 10 -3 6 -8 10 -11 10 -2 0
-4 -4 -4 -10z"/>
<path d="M3845 2620 c3 -5 11 -10 16 -10 6 0 7 5 4 10 -3 6 -11 10 -16 10 -6
0 -7 -4 -4 -10z"/>
<path d="M3880 2607 c0 -3 12 -12 26 -22 15 -9 23 -12 20 -6 -7 11 -46 35 -46
28z"/>
<path d="M4316 2577 c3 -10 9 -15 12 -12 3 3 0 11 -7 18 -10 9 -11 8 -5 -6z"/>
<path d="M3980 2570 c0 -21 16 -44 23 -33 4 6 0 19 -8 29 -11 15 -14 16 -15 4z"/>
<path d="M200 2538 c0 -5 7 -8 15 -8 8 0 14 -5 13 -11 -2 -6 3 -14 10 -16 7
-3 12 4 12 19 0 18 -5 23 -25 23 -14 0 -25 -3 -25 -7z"/>
<path d="M4056 2487 c3 -10 9 -15 12 -12 3 3 0 11 -7 18 -10 9 -11 8 -5 -6z"/>
<path d="M1313 2381 c-3 -13 -13 -21 -26 -21 -11 0 -26 -8 -33 -17 -7 -10 -23
-19 -36 -19 -13 -1 -36 -6 -53 -12 -16 -6 -43 -14 -60 -19 -21 -6 -31 -16 -33
-32 -2 -13 -12 -26 -24 -29 -15 -4 -19 -11 -16 -33 3 -16 1 -29 -4 -29 -4 0
-8 -4 -8 -10 0 -5 11 -10 25 -10 16 0 25 6 25 15 0 8 8 15 18 15 11 0 27 9 37
20 10 11 30 20 45 20 16 0 30 7 34 15 3 8 12 15 21 15 8 0 15 5 15 11 0 8 5 8
15 -1 12 -10 15 -10 15 3 0 8 -6 17 -12 20 -21 7 -2 18 41 24 23 3 41 10 41
14 0 5 -4 9 -10 9 -13 0 -13 33 1 47 8 8 8 13 -1 18 -7 4 -14 -1 -17 -14z"/>
<path d="M357 2359 c7 -7 15 -10 18 -7 3 3 -2 9 -12 12 -14 6 -15 5 -6 -5z"/>
<path d="M111 2324 c-13 -13 -26 -22 -29 -20 -2 3 -22 -13 -43 -34 l-39 -38 0
-215 c0 -163 3 -216 13 -220 9 -4 9 -7 0 -18 -13 -13 -19 -79 -8 -79 4 0 33
19 65 42 l60 42 0 130 c0 79 6 159 16 201 34 156 36 176 24 206 -15 34 -27 35
-59 3z m-24 -520 c-3 -3 -12 -4 -19 -1 -8 3 -5 6 6 6 11 1 17 -2 13 -5z"/>
<path d="M302 2261 c-8 -4 -13 -11 -13 -15 3 -18 0 -20 -9 -6 -6 9 -10 10 -10
3 0 -6 -3 -19 -6 -27 -5 -12 -2 -15 11 -9 12 4 23 0 31 -12 12 -16 14 -15 19
11 4 16 9 37 12 47 5 18 -13 23 -35 8z"/>
<path d="M3664 2136 c-67 -16 -137 -58 -165 -99 l-23 -32 47 38 c26 21 44 31
41 23 -3 -9 -10 -16 -14 -16 -10 0 -70 -93 -70 -109 0 -7 6 -11 14 -8 7 3 18
1 23 -4 5 -5 7 4 5 25 -3 24 1 35 12 39 10 4 16 1 16 -7 0 -29 41 -66 73 -66
50 0 106 19 117 40 14 26 13 83 -2 98 -9 9 -9 12 0 12 17 0 92 -31 92 -39 0
-3 16 -7 36 -8 46 -2 33 16 -34 47 -51 24 -206 38 -217 20 -8 -13 -25 -13 -25
-1 0 29 146 54 220 39 l35 -8 -30 15 c-36 17 -83 17 -151 1z m30 -107 c31 -24
33 -49 7 -73 -15 -14 -20 -14 -29 -3 -9 10 -8 19 3 34 14 19 12 22 -16 33 -22
10 -27 15 -17 21 19 12 22 11 52 -12z m-55 -61 c12 4 12 3 0 -11 -10 -10 -19
-12 -31 -6 -25 14 -32 30 -17 40 9 5 17 2 24 -10 5 -10 16 -16 24 -13z"/>
<path d="M4422 2128 c-14 -14 2 -38 27 -38 9 0 24 -12 33 -27 l17 -28 1 30 c0
57 -46 95 -78 63z"/>
<path d="M2678 2033 c7 -3 16 -2 19 1 4 3 -2 6 -13 5 -11 0 -14 -3 -6 -6z"/>
<path d="M3061 1916 c12 -36 17 -70 14 -100 -3 -27 -1 -46 5 -46 6 0 10 12 10
26 0 20 4 25 16 20 14 -5 15 -1 9 31 -9 51 -45 123 -60 123 -10 0 -9 -12 6
-54z"/>
<path d="M2736 1949 c-22 -5 -58 -24 -81 -41 -37 -28 -41 -36 -38 -69 2 -21
-2 -41 -7 -44 -19 -12 -10 -26 13 -19 12 4 33 7 47 8 14 1 24 6 23 12 -1 6 10
9 28 6 25 -4 28 -2 23 14 -5 12 1 9 15 -8 18 -23 31 -28 64 -28 23 0 52 3 65
6 26 7 52 51 52 89 0 23 2 24 21 13 11 -7 23 -25 26 -40 3 -17 10 -25 19 -21
19 7 18 32 -3 56 -10 12 -12 17 -4 12 9 -5 12 -3 9 6 -2 7 -24 23 -48 36 -34
18 -58 23 -114 22 -39 -1 -89 -5 -110 -10z m103 -3 c-2 -2 -22 -6 -44 -9 -28
-5 -34 -4 -20 3 19 8 73 14 64 6z m96 -10 c19 -8 35 -17 35 -20 0 -6 -54 10
-77 23 -27 16 2 13 42 -3z m-35 -62 c16 -30 5 -56 -26 -59 -10 -2 -28 -6 -39
-10 -11 -4 -5 2 13 14 30 19 44 51 22 51 -5 0 -10 7 -10 15 0 24 25 17 40 -11z
m-90 -54 c0 -5 -2 -10 -4 -10 -3 0 -8 5 -11 10 -3 6 -1 10 4 10 6 0 11 -4 11
-10z"/>
<path d="M4290 1886 c0 -25 27 -43 42 -28 9 9 -18 52 -33 52 -5 0 -9 -11 -9
-24z"/>
<path d="M265 1810 c3 -5 8 -10 11 -10 2 0 4 5 4 10 0 6 -5 10 -11 10 -5 0 -7
-4 -4 -10z"/>
<path d="M3086 1596 c-9 -30 -16 -64 -16 -76 0 -44 40 25 47 80 8 68 -11 66
-31 -4z"/>
<path d="M425 1600 c3 -5 8 -10 11 -10 2 0 4 5 4 10 0 6 -5 10 -11 10 -5 0 -7
-4 -4 -10z"/>
<path d="M4507 1564 c-4 -4 -7 -14 -7 -23 0 -11 3 -12 11 -4 6 6 10 16 7 23
-2 6 -7 8 -11 4z"/>
<path d="M3393 1484 c-7 -3 -13 -12 -13 -20 0 -11 10 -14 38 -12 25 2 37 8 37
18 0 15 -39 24 -62 14z"/>
<path d="M3151 1446 c-17 -20 13 -35 62 -33 43 2 46 10 15 31 -28 20 -62 20
-77 2z"/>
<path d="M4537 1134 c-4 -4 -7 -14 -7 -23 0 -11 3 -12 11 -4 6 6 10 16 7 23
-2 6 -7 8 -11 4z"/>
<path d="M3076 917 c3 -10 9 -15 12 -12 3 3 0 11 -7 18 -10 9 -11 8 -5 -6z"/>
<path d="M3670 663 c5 -2 10 -18 10 -34 0 -16 4 -29 9 -29 13 0 -3 63 -17 66
-7 1 -8 0 -2 -3z"/>
<path d="M3405 480 c-3 -5 -1 -10 4 -10 6 0 11 5 11 10 0 6 -2 10 -4 10 -3 0
-8 -4 -11 -10z"/>
<path d="M1410 421 c0 -10 22 -31 32 -31 17 0 7 28 -12 33 -11 3 -20 2 -20 -2z"/>
<path d="M471 340 c0 -14 6 -34 14 -44 8 -11 15 -14 15 -8 0 16 52 16 68 0 7
-7 12 -9 12 -4 0 28 -79 52 -81 24 0 -7 -7 3 -14 22 -12 31 -14 32 -14 10z"/>
<path d="M543 352 c-7 -5 -3 -11 13 -19 26 -12 33 -3 11 15 -7 6 -18 8 -24 4z"/>
<path d="M495 340 c3 -5 8 -10 11 -10 2 0 4 5 4 10 0 6 -5 10 -11 10 -5 0 -7
-4 -4 -10z"/>
<path d="M1390 331 c-7 -15 -7 -21 0 -21 12 0 25 28 17 36 -3 3 -10 -4 -17
-15z"/>
<path d="M1771 284 c0 -11 3 -14 6 -6 3 7 2 16 -1 19 -3 4 -6 -2 -5 -13z"/>
<path d="M4166 107 c-23 -24 -49 -58 -59 -75 l-18 -32 115 0 116 0 6 27 c4 16
2 36 -7 52 -16 29 -74 71 -97 71 -9 0 -34 -19 -56 -43z"/>
<path d="M3080 96 c0 -3 9 -10 20 -16 11 -6 20 -8 20 -6 0 3 -9 10 -20 16 -11
6 -20 8 -20 6z"/>
<path d="M1646 73 c-3 -3 -6 -15 -6 -25 0 -10 -4 -18 -10 -18 -5 0 -10 -8 -10
-17 0 -14 4 -12 25 7 14 13 25 29 25 36 0 15 -15 26 -24 17z"/>
<path d="M3695 69 c-4 -6 -5 -12 -2 -15 2 -3 7 2 10 11 7 17 1 20 -8 4z"/>
<path d="M3893 29 c-18 -11 -33 -23 -33 -25 0 -2 46 -4 102 -4 l102 0 -21 21
c-32 32 -108 36 -150 8z"/>
</g>
</svg>
